<mxfile host="app.diagrams.net" agent="Mozilla/5.0 (Macintosh; Intel Mac OS X 10_15_7) AppleWebKit/537.36 (KHTML, like Gecko) Chrome/134.0.0.0 Safari/537.36" version="26.1.3">
  <diagram name="机器学习流程" id="mR5CZb8NZR7Opi7pL1JN">
    <mxGraphModel dx="1363" dy="803" grid="1" gridSize="10" guides="1" tooltips="1" connect="1" arrows="1" fold="1" page="1" pageScale="1" pageWidth="827" pageHeight="1169" math="0" shadow="0">
      <root>
        <mxCell id="0" />
        <mxCell id="1" parent="0" />
        <mxCell id="01e7L2XecgdJmItVDrz7-37" value="数据采集与整合" style="rounded=1;whiteSpace=wrap;html=1;fillColor=#d5e8d4;strokeColor=#82b366;fontStyle=1;fontSize=13;" vertex="1" parent="1">
          <mxGeometry x="80" y="100" width="140" height="70" as="geometry" />
        </mxCell>
        <mxCell id="01e7L2XecgdJmItVDrz7-38" value="数据预处理" style="rounded=1;whiteSpace=wrap;html=1;fillColor=#d5e8d4;strokeColor=#82b366;fontStyle=1;fontSize=13;" vertex="1" parent="1">
          <mxGeometry x="340" y="100" width="140" height="70" as="geometry" />
        </mxCell>
        <mxCell id="01e7L2XecgdJmItVDrz7-39" value="特征工程" style="rounded=1;whiteSpace=wrap;html=1;fillColor=#d5e8d4;strokeColor=#82b366;fontStyle=1;fontSize=13;" vertex="1" parent="1">
          <mxGeometry x="600" y="100" width="140" height="70" as="geometry" />
        </mxCell>
        <mxCell id="01e7L2XecgdJmItVDrz7-40" value="模型选择与训练" style="rounded=1;whiteSpace=wrap;html=1;fillColor=#d5e8d4;strokeColor=#82b366;fontStyle=1;fontSize=13;" vertex="1" parent="1">
          <mxGeometry x="600" y="300" width="140" height="70" as="geometry" />
        </mxCell>
        <mxCell id="01e7L2XecgdJmItVDrz7-41" value="模型评估与部署" style="rounded=1;whiteSpace=wrap;html=1;fillColor=#d5e8d4;strokeColor=#82b366;fontStyle=1;fontSize=13;" vertex="1" parent="1">
          <mxGeometry x="340" y="300" width="140" height="70" as="geometry" />
        </mxCell>
        <mxCell id="01e7L2XecgdJmItVDrz7-42" value="监控与优化" style="rounded=1;whiteSpace=wrap;html=1;fillColor=#d5e8d4;strokeColor=#82b366;fontStyle=1;fontSize=13;" vertex="1" parent="1">
          <mxGeometry x="80" y="300" width="140" height="70" as="geometry" />
        </mxCell>
        <mxCell id="01e7L2XecgdJmItVDrz7-43" value="原始数据" style="edgeStyle=orthogonalEdgeStyle;rounded=0;orthogonalLoop=1;jettySize=auto;html=1;exitX=1;exitY=0.5;exitDx=0;exitDy=0;entryX=0;entryY=0.5;entryDx=0;entryDy=0;endArrow=classic;endFill=1;strokeColor=#666666;strokeWidth=1.5;fontSize=11;verticalAlign=bottom;" edge="1" parent="1" source="01e7L2XecgdJmItVDrz7-37" target="01e7L2XecgdJmItVDrz7-38">
          <mxGeometry relative="1" as="geometry">
            <mxPoint y="15" as="offset" />
          </mxGeometry>
        </mxCell>
        <mxCell id="01e7L2XecgdJmItVDrz7-44" value="清洗后的数据" style="edgeStyle=orthogonalEdgeStyle;rounded=0;orthogonalLoop=1;jettySize=auto;html=1;exitX=1;exitY=0.5;exitDx=0;exitDy=0;entryX=0;entryY=0.5;entryDx=0;entryDy=0;endArrow=classic;endFill=1;strokeColor=#666666;strokeWidth=1.5;fontSize=11;verticalAlign=bottom;" edge="1" parent="1" source="01e7L2XecgdJmItVDrz7-38" target="01e7L2XecgdJmItVDrz7-39">
          <mxGeometry relative="1" as="geometry">
            <mxPoint y="15" as="offset" />
          </mxGeometry>
        </mxCell>
        <mxCell id="01e7L2XecgdJmItVDrz7-45" value="特征向量" style="edgeStyle=orthogonalEdgeStyle;rounded=0;orthogonalLoop=1;jettySize=auto;html=1;exitX=0.5;exitY=1;exitDx=0;exitDy=0;entryX=0.5;entryY=0;entryDx=0;entryDy=0;endArrow=classic;endFill=1;strokeColor=#666666;strokeWidth=1.5;fontSize=11;verticalAlign=middle;align=right;" edge="1" parent="1" source="01e7L2XecgdJmItVDrz7-39" target="01e7L2XecgdJmItVDrz7-40">
          <mxGeometry relative="1" as="geometry">
            <mxPoint x="-15" as="offset" />
          </mxGeometry>
        </mxCell>
        <mxCell id="01e7L2XecgdJmItVDrz7-46" value="训练好的模型" style="edgeStyle=orthogonalEdgeStyle;rounded=0;orthogonalLoop=1;jettySize=auto;html=1;exitX=0;exitY=0.5;exitDx=0;exitDy=0;entryX=1;entryY=0.5;entryDx=0;entryDy=0;endArrow=classic;endFill=1;strokeColor=#666666;strokeWidth=1.5;fontSize=11;verticalAlign=bottom;" edge="1" parent="1" source="01e7L2XecgdJmItVDrz7-40" target="01e7L2XecgdJmItVDrz7-41">
          <mxGeometry relative="1" as="geometry">
            <mxPoint y="15" as="offset" />
          </mxGeometry>
        </mxCell>
        <mxCell id="01e7L2XecgdJmItVDrz7-47" value="已部署模型 / 预测结果" style="edgeStyle=orthogonalEdgeStyle;rounded=0;orthogonalLoop=1;jettySize=auto;html=1;exitX=0;exitY=0.5;exitDx=0;exitDy=0;entryX=1;entryY=0.5;entryDx=0;entryDy=0;endArrow=classic;endFill=1;strokeColor=#666666;strokeWidth=1.5;fontSize=11;verticalAlign=bottom;" edge="1" parent="1" source="01e7L2XecgdJmItVDrz7-41" target="01e7L2XecgdJmItVDrz7-42">
          <mxGeometry relative="1" as="geometry">
            <mxPoint y="15" as="offset" />
          </mxGeometry>
        </mxCell>
        <mxCell id="01e7L2XecgdJmItVDrz7-48" value="反馈 / 优化指令" style="edgeStyle=orthogonalEdgeStyle;rounded=0;orthogonalLoop=1;jettySize=auto;html=1;exitX=0.5;exitY=0;exitDx=0;exitDy=0;endArrow=classic;endFill=1;strokeColor=#666666;strokeWidth=1.5;fontSize=11;verticalAlign=top;entryX=0.5;entryY=1;entryDx=0;entryDy=0;" edge="1" parent="1" source="01e7L2XecgdJmItVDrz7-42" target="01e7L2XecgdJmItVDrz7-37">
          <mxGeometry relative="1" as="geometry">
            <Array as="points">
              <mxPoint x="150" y="170" />
              <mxPoint x="150" y="170" />
            </Array>
            <mxPoint y="-15" as="offset" />
            <mxPoint y="420" as="sourcePoint" />
            <mxPoint x="-160" y="370" as="targetPoint" />
          </mxGeometry>
        </mxCell>
      </root>
    </mxGraphModel>
  </diagram>
</mxfile>
